<svg width="1600" height="900" viewBox="0 0 1600 900" fill="none" xmlns="http://www.w3.org/2000/svg">
  <defs>
    <linearGradient id="bg" x1="0" y1="0" x2="1" y2="1">
      <stop offset="0%" stop-color="#EAF1F8"/>
      <stop offset="55%" stop-color="#F7F8FA"/>
      <stop offset="100%" stop-color="#EEF1F5"/>
    </linearGradient>
    <linearGradient id="car" x1="0" y1="0" x2="1" y2="0">
      <stop offset="0%" stop-color="#C9D6E5"/>
      <stop offset="50%" stop-color="#B8C7D8"/>
      <stop offset="100%" stop-color="#D8E2EE"/>
    </linearGradient>
    <filter id="shadow" x="-20%" y="-20%" width="140%" height="140%">
      <feDropShadow dx="0" dy="18" stdDeviation="22" flood-color="#1A1A1A" flood-opacity="0.10"/>
    </filter>
  </defs>

  <rect width="1600" height="900" fill="url(#bg)"/>

  <!-- subtle grid -->
  <g opacity="0.25" stroke="#D6DCE5">
    <path d="M0 180H1600"/>
    <path d="M0 360H1600"/>
    <path d="M0 540H1600"/>
    <path d="M0 720H1600"/>
    <path d="M320 0V900"/>
    <path d="M640 0V900"/>
    <path d="M960 0V900"/>
    <path d="M1280 0V900"/>
  </g>

  <!-- abstract "3 cars" silhouettes (neutral placeholders) -->
  <g filter="url(#shadow)">
    <g transform="translate(580 420)">
      <rect x="0" y="60" rx="44" width="520" height="140" fill="url(#car)"/>
      <rect x="96" y="0" rx="54" width="320" height="120" fill="#DCE6F1"/>
      <circle cx="130" cy="210" r="36" fill="#8A8F98" opacity="0.35"/>
      <circle cx="410" cy="210" r="36" fill="#8A8F98" opacity="0.35"/>
    </g>

    <g transform="translate(930 470)" opacity="0.92">
      <rect x="0" y="56" rx="40" width="460" height="128" fill="#C8D6E7"/>
      <rect x="86" y="0" rx="48" width="292" height="112" fill="#D8E3F0"/>
      <circle cx="116" cy="194" r="33" fill="#8A8F98" opacity="0.30"/>
      <circle cx="360" cy="194" r="33" fill="#8A8F98" opacity="0.30"/>
    </g>

    <g transform="translate(280 480)" opacity="0.92">
      <rect x="0" y="56" rx="40" width="460" height="128" fill="#C8D6E7"/>
      <rect x="86" y="0" rx="48" width="292" height="112" fill="#D8E3F0"/>
      <circle cx="116" cy="194" r="33" fill="#8A8F98" opacity="0.30"/>
      <circle cx="360" cy="194" r="33" fill="#8A8F98" opacity="0.30"/>
    </g>
  </g>

  <!-- tiny premium accent line (very subtle) -->
  <rect x="980" y="238" width="420" height="2" fill="#E6C977" opacity="0.35"/>
</svg>
